<mxfile host="app.diagrams.net" modified="2024-03-20T13:09:38.484Z" agent="Mozilla/5.0 (X11; Linux x86_64; rv:109.0) Gecko/20100101 Firefox/115.0" etag="ycDWMarH9ZEmXg5o2TK1" version="24.0.7" type="device">
  <diagram name="Page-1" id="LYINpWq9P_KafRxt_BE9">
    <mxGraphModel dx="995" dy="1090" grid="0" gridSize="10" guides="1" tooltips="1" connect="1" arrows="1" fold="1" page="0" pageScale="1" pageWidth="850" pageHeight="1100" math="0" shadow="0">
      <root>
        <mxCell id="0" />
        <mxCell id="1" parent="0" />
        <mxCell id="z-5GgKgU87U8D3NbDaNT-11" style="edgeStyle=none;curved=1;rounded=0;orthogonalLoop=1;jettySize=auto;html=1;fontSize=12;startSize=8;endSize=8;" edge="1" parent="1" source="z-5GgKgU87U8D3NbDaNT-6" target="z-5GgKgU87U8D3NbDaNT-7">
          <mxGeometry relative="1" as="geometry" />
        </mxCell>
        <mxCell id="z-5GgKgU87U8D3NbDaNT-6" value="Project sponsor" style="rounded=0;whiteSpace=wrap;html=1;" vertex="1" parent="1">
          <mxGeometry x="159" y="-172" width="120" height="60" as="geometry" />
        </mxCell>
        <mxCell id="z-5GgKgU87U8D3NbDaNT-12" style="edgeStyle=none;curved=1;rounded=0;orthogonalLoop=1;jettySize=auto;html=1;fontSize=12;startSize=8;endSize=8;" edge="1" parent="1" source="z-5GgKgU87U8D3NbDaNT-7" target="z-5GgKgU87U8D3NbDaNT-9">
          <mxGeometry relative="1" as="geometry" />
        </mxCell>
        <mxCell id="z-5GgKgU87U8D3NbDaNT-13" style="edgeStyle=none;curved=1;rounded=0;orthogonalLoop=1;jettySize=auto;html=1;entryX=0.5;entryY=0;entryDx=0;entryDy=0;fontSize=12;startSize=8;endSize=8;" edge="1" parent="1" source="z-5GgKgU87U8D3NbDaNT-7" target="z-5GgKgU87U8D3NbDaNT-8">
          <mxGeometry relative="1" as="geometry" />
        </mxCell>
        <mxCell id="z-5GgKgU87U8D3NbDaNT-7" value="Product manager" style="rounded=0;whiteSpace=wrap;html=1;" vertex="1" parent="1">
          <mxGeometry x="159" y="-70" width="120" height="60" as="geometry" />
        </mxCell>
        <mxCell id="z-5GgKgU87U8D3NbDaNT-14" style="edgeStyle=none;curved=1;rounded=0;orthogonalLoop=1;jettySize=auto;html=1;fontSize=12;startSize=8;endSize=8;" edge="1" parent="1" source="z-5GgKgU87U8D3NbDaNT-8" target="z-5GgKgU87U8D3NbDaNT-10">
          <mxGeometry relative="1" as="geometry" />
        </mxCell>
        <mxCell id="z-5GgKgU87U8D3NbDaNT-8" value="Маркетолог" style="rounded=0;whiteSpace=wrap;html=1;" vertex="1" parent="1">
          <mxGeometry x="241" y="32" width="120" height="60" as="geometry" />
        </mxCell>
        <mxCell id="z-5GgKgU87U8D3NbDaNT-9" value="Developers" style="rounded=0;whiteSpace=wrap;html=1;" vertex="1" parent="1">
          <mxGeometry x="73" y="32" width="120" height="60" as="geometry" />
        </mxCell>
        <mxCell id="z-5GgKgU87U8D3NbDaNT-10" value="Пользователи" style="rounded=0;whiteSpace=wrap;html=1;" vertex="1" parent="1">
          <mxGeometry x="241" y="145" width="120" height="60" as="geometry" />
        </mxCell>
        <mxCell id="z-5GgKgU87U8D3NbDaNT-17" value="Actors" style="swimlane;whiteSpace=wrap;html=1;" vertex="1" parent="1">
          <mxGeometry x="-184" y="-172" width="200" height="138" as="geometry" />
        </mxCell>
        <mxCell id="z-5GgKgU87U8D3NbDaNT-1" value="&lt;div&gt;Denis&lt;/div&gt;" style="shape=umlActor;verticalLabelPosition=bottom;verticalAlign=top;html=1;outlineConnect=0;" vertex="1" parent="z-5GgKgU87U8D3NbDaNT-17">
          <mxGeometry x="15" y="31" width="30" height="60" as="geometry" />
        </mxCell>
        <mxCell id="z-5GgKgU87U8D3NbDaNT-2" value="Danila" style="shape=umlActor;verticalLabelPosition=bottom;verticalAlign=top;html=1;outlineConnect=0;" vertex="1" parent="z-5GgKgU87U8D3NbDaNT-17">
          <mxGeometry x="81" y="34" width="30" height="60" as="geometry" />
        </mxCell>
        <mxCell id="z-5GgKgU87U8D3NbDaNT-5" value="Dev" style="shape=umlActor;verticalLabelPosition=bottom;verticalAlign=top;html=1;outlineConnect=0;" vertex="1" parent="z-5GgKgU87U8D3NbDaNT-17">
          <mxGeometry x="146" y="34" width="30" height="60" as="geometry" />
        </mxCell>
        <mxCell id="z-5GgKgU87U8D3NbDaNT-19" value="&lt;div&gt;Denis&lt;/div&gt;" style="shape=umlActor;verticalLabelPosition=bottom;verticalAlign=top;html=1;outlineConnect=0;" vertex="1" parent="1">
          <mxGeometry x="124" y="-70" width="30" height="60" as="geometry" />
        </mxCell>
        <mxCell id="z-5GgKgU87U8D3NbDaNT-20" value="&lt;div&gt;Denis&lt;/div&gt;" style="shape=umlActor;verticalLabelPosition=bottom;verticalAlign=top;html=1;outlineConnect=0;" vertex="1" parent="1">
          <mxGeometry x="69" y="102" width="30" height="60" as="geometry" />
        </mxCell>
        <mxCell id="z-5GgKgU87U8D3NbDaNT-21" value="Danila" style="shape=umlActor;verticalLabelPosition=bottom;verticalAlign=top;html=1;outlineConnect=0;" vertex="1" parent="1">
          <mxGeometry x="118" y="102" width="30" height="60" as="geometry" />
        </mxCell>
        <mxCell id="z-5GgKgU87U8D3NbDaNT-22" value="Dev" style="shape=umlActor;verticalLabelPosition=bottom;verticalAlign=top;html=1;outlineConnect=0;" vertex="1" parent="1">
          <mxGeometry x="375" y="32" width="30" height="60" as="geometry" />
        </mxCell>
      </root>
    </mxGraphModel>
  </diagram>
</mxfile>
